<?xml version="1.0" encoding="UTF-8" standalone="no"?>
<svg
   xmlns:dc="http://purl.org/dc/elements/1.1/"
   xmlns:cc="http://creativecommons.org/ns#"
   xmlns:rdf="http://www.w3.org/1999/02/22-rdf-syntax-ns#"
   xmlns:svg="http://www.w3.org/2000/svg"
   xmlns="http://www.w3.org/2000/svg"
   xmlns:sodipodi="http://sodipodi.sourceforge.net/DTD/sodipodi-0.dtd"
   xmlns:inkscape="http://www.inkscape.org/namespaces/inkscape"
   viewBox="0 0 380.10101 415.98126"
   version="1.1"
   id="svg6"
   sodipodi:docname="dice.svg"
   inkscape:version="0.92.3 (2405546, 2018-03-11)"
   width="380.10101"
   height="415.98126">
  <metadata
     id="metadata12">
    <rdf:RDF>
      <cc:Work
         rdf:about="">
        <dc:format>image/svg+xml</dc:format>
        <dc:type
           rdf:resource="http://purl.org/dc/dcmitype/StillImage" />
        <dc:title></dc:title>
      </cc:Work>
    </rdf:RDF>
  </metadata>
  <defs
     id="defs10" />
  <sodipodi:namedview
     pagecolor="#ffffff"
     bordercolor="#666666"
     borderopacity="1"
     objecttolerance="10"
     gridtolerance="10"
     guidetolerance="10"
     inkscape:pageopacity="0"
     inkscape:pageshadow="2"
     inkscape:window-width="1916"
     inkscape:window-height="1053"
     id="namedview8"
     showgrid="false"
     inkscape:zoom="0.921875"
     inkscape:cx="86.00069"
     inkscape:cy="235.18949"
     inkscape:window-x="2"
     inkscape:window-y="25"
     inkscape:window-maximized="0"
     inkscape:current-layer="svg6"
     fit-margin-top="0"
     fit-margin-left="0"
     fit-margin-right="0"
     fit-margin-bottom="0" />
  <g
     class=""
     style="fill:#ffffff"
     id="g4"
     transform="translate(-66.006,-44.764)">
    <path
       d="m 255.76,44.764 c -6.176,0 -12.353,1.384 -17.137,4.152 L 85.87,137.276 c -9.57,5.536 -9.57,14.29 0,19.826 l 152.753,88.36 c 9.57,5.536 24.703,5.536 34.272,0 l 152.753,-88.36 c 9.57,-5.535 9.57,-14.29 0,-19.825 L 272.895,48.917 c -4.785,-2.77 -10.96,-4.153 -17.135,-4.153 z m 1.86,12.423 a 31.953,18.96 0 0 1 21.194,5.536 31.953,18.96 0 0 1 -45.187,26.812 31.953,18.96 0 0 1 23.992,-32.347 z m 58.43,35.208 a 31.953,18.96 0 0 1 22.13,32.363 31.953286,18.96017 0 0 1 -45.19,-26.813 31.953,18.96 0 0 1 23.06,-5.55 z m -177.603,34.98 a 31.953,18.96 0 0 1 0.002,0 31.953,18.96 0 0 1 21.195,5.535 31.953286,18.96017 0 0 1 -45.19,26.813 31.953,18.96 0 0 1 23.992,-32.348 z m 237.903,0.26 a 31.953,18.96 0 0 1 0.002,0 31.953,18.96 0 0 1 21.195,5.535 31.953,18.96 0 0 1 -45.19,26.812 31.953,18.96 0 0 1 23.993,-32.347 z m -179.03,35.21 a 31.953,18.96 0 0 1 22.127,32.362 31.953,18.96 0 1 1 -45.187,-26.812 31.953,18.96 0 0 1 23.06,-5.55 z M 75.67,173.84 c -5.753,-0.155 -9.664,4.336 -9.664,12.28 v 157.696 c 0,11.052 7.57,24.163 17.14,29.69 l 146.93,84.848 c 9.57,5.526 17.14,1.156 17.14,-9.895 V 290.76 c 0,-11.052 -7.57,-24.16 -17.14,-29.688 L 83.146,176.225 c -2.69,-1.555 -5.225,-2.327 -7.476,-2.387 z m 360.773,0.002 c -2.25,0.06 -4.783,0.83 -7.474,2.385 l -146.935,84.847 c -9.57,5.527 -17.14,18.638 -17.14,29.69 v 157.7 c 0,11.05 7.57,15.418 17.14,9.89 L 428.97,373.51 c 9.57,-5.527 17.137,-18.636 17.137,-29.688 v -157.7 c 0,-7.942 -3.91,-12.432 -9.664,-12.278 z M 89.297,195.77 a 31.236,18.008 58.094 0 1 33.818,41.183 31.236,18.008 58.094 1 1 -45,-25.98 31.236,18.008 58.094 0 1 11.182,-15.203 z m 333.52,0 a 18.008,31.236 31.906 0 1 11.183,15.203 18.008,31.236 31.906 0 1 -45,25.98 18.008,31.236 31.906 0 1 33.818,-41.183 z m -165.198,2.314 a 31.953,18.96 0 0 1 21.194,5.535 31.953,18.96 0 0 1 -45.187,26.812 31.953,18.96 0 0 1 23.992,-32.348 z m -56.323,62.35 a 31.236,18.008 58.094 0 1 33.818,41.183 31.236,18.008 58.094 1 1 -45,-25.98 31.236,18.008 58.094 0 1 11.182,-15.203 z m 109.52,0 a 18.008,31.236 31.906 0 1 11.184,15.203 18.008,31.236 31.906 0 1 -45,25.98 18.008,31.236 31.906 0 1 33.818,-41.183 z M 145.296,289.1 a 31.236,18.008 58.094 0 1 33.818,41.183 31.236,18.008 58.094 0 1 -45,-25.98 31.236,18.008 58.094 0 1 11.182,-15.203 z m -55.998,29.38 a 31.236,18.008 58.094 0 1 33.818,41.184 31.236,18.008 58.094 1 1 -45,-25.98 31.236,18.008 58.094 0 1 11.182,-15.204 z m 333.52,0 a 18.008,31.236 31.906 0 1 11.182,15.204 18.008,31.236 31.906 0 1 -45,25.98 18.008,31.236 31.906 0 1 33.818,-41.184 z m -221.52,64.663 a 31.236,18.008 58.094 0 1 33.818,41.183 31.236,18.008 58.094 1 1 -45,-25.98 31.236,18.008 58.094 0 1 11.182,-15.203 z m 109.52,0 a 18.008,31.236 31.906 0 1 11.182,15.203 18.008,31.236 31.906 0 1 -45,25.98 18.008,31.236 31.906 0 1 33.818,-41.183 z"
       id="path2"
       style="fill:#ffffff;fill-opacity:1"
       inkscape:connector-curvature="0" />
  </g>
</svg>
